<?xml version="1.0" encoding="UTF-8"?>
<svg xmlns="http://www.w3.org/2000/svg" xmlns:xlink="http://www.w3.org/1999/xlink" width="121.437" height="24.909" viewBox="0 0 121.437 24.909">
  <defs>
    <linearGradient id="linear-gradient" x1="0.458" y1="0.234" x2="0.23" y2="1.566" gradientUnits="objectBoundingBox">
      <stop offset="0" stop-color="#ffab48"></stop>
      <stop offset="0.139" stop-color="#ff8f5d"></stop>
      <stop offset="0.556" stop-color="#ff4298"></stop>
      <stop offset="0.853" stop-color="#ff12bd"></stop>
      <stop offset="1" stop-color="#f0c"></stop>
    </linearGradient>
    <linearGradient id="linear-gradient-2" x1="0.065" y1="0.434" x2="0.706" y2="0.512" gradientUnits="objectBoundingBox">
      <stop offset="0" stop-color="#900070"></stop>
      <stop offset="0.278" stop-color="#900070"></stop>
      <stop offset="0.542" stop-color="#bd228e"></stop>
      <stop offset="0.847" stop-color="#ec46ae"></stop>
      <stop offset="1" stop-color="#ff54bb"></stop>
    </linearGradient>
    <linearGradient id="linear-gradient-3" x1="0.5" y1="0" x2="0.5" y2="1" xlink:href="#linear-gradient"></linearGradient>
    <clipPath id="clip-path">
      <rect id="Rectángulo_4" data-name="Rectángulo 4" width="121.437" height="24.909" fill="#ffffff"></rect>
    </clipPath>
    <clipPath id="clip-path-2">
      <path id="Trazado_156" data-name="Trazado 156" d="M12.516,4.549a5.236,5.236,0,0,0-.885,2.639,21.178,21.178,0,0,0,.132,4.446c.134,1.178.411,2.333.633,3.5a14.1,14.1,0,0,0,1.264,3.71,5.909,5.909,0,0,0,3.113,3.187,5.62,5.62,0,0,0,5.335-.9,13.509,13.509,0,0,0,2.279-2.068,9.6,9.6,0,0,0-1.55.317,3.387,3.387,0,0,1-4.051-2.64,20.739,20.739,0,0,1-.818-4.648,30.018,30.018,0,0,0-.677-5.217,5.01,5.01,0,0,0-1.62-2.781,2.309,2.309,0,0,0-1.413-.526,2.148,2.148,0,0,0-1.742.982" transform="translate(-11.564 -3.567)" stroke="rgba(0,0,0,0)" stroke-width="1" fill="url(#linear-gradient)"></path>
    </clipPath>
    <clipPath id="clip-path-3">
      <path id="Trazado_157" data-name="Trazado 157" d="M31.251,2.265a38.635,38.635,0,0,0-5.586,5.26c-1.642,1.8-8.279,9.1-9.889,10.933a3.387,3.387,0,0,0,4.051,2.64,9.6,9.6,0,0,1,1.55-.317C22.816,19,29.286,11.77,30.755,10.02A33.3,33.3,0,0,1,33.6,6.846a12.817,12.817,0,0,1,2.445-1.941,4.2,4.2,0,0,1,3.029-.59A4.565,4.565,0,0,0,38.1,2.846a4.791,4.791,0,0,0-3.63-1.685,5.466,5.466,0,0,0-3.218,1.1" transform="translate(-15.776 -1.161)" stroke="rgba(0,0,0,0)" stroke-width="1" fill="url(#linear-gradient-2)"></path>
    </clipPath>
    <clipPath id="clip-path-4">
      <path id="Trazado_158" data-name="Trazado 158" d="M19.311.887a3.372,3.372,0,0,0-3.535,3.3,3.673,3.673,0,0,0,3.5,3.532,3.543,3.543,0,0,0,3.34-3.558,3.189,3.189,0,0,0-3.3-3.276h0" transform="translate(-15.776 -0.887)" stroke="rgba(0,0,0,0)" stroke-width="1" fill="url(#linear-gradient-3)"></path>
    </clipPath>
  </defs>
  <g id="logo_main_evaluar" data-name="logo main evaluar" transform="translate(-132 1778.409)">
    <g id="Grupo_29" data-name="Grupo 29" transform="translate(132 -1778.409)">
      <g id="Grupo_10" data-name="Grupo 10" transform="translate(0 0)">
        <g id="Grupo_9" data-name="Grupo 9" clip-path="url(#clip-path)">
          <path id="Trazado_150" data-name="Trazado 150" d="M3.763,14.94a4.038,4.038,0,0,0,1.425,3.132,5.8,5.8,0,0,0,3.64,1.02,8.866,8.866,0,0,0,2.94-.483,11.053,11.053,0,0,0,2.267-1.037,1.5,1.5,0,0,1,.722,1.67,2.144,2.144,0,0,1-.7,1.166,5.191,5.191,0,0,1-1.49.928,9.968,9.968,0,0,1-2.076.61,13.134,13.134,0,0,1-2.465.223,11.173,11.173,0,0,1-3.791-.593A6.032,6.032,0,0,1,.163,16.869a10.506,10.506,0,0,1,.075-4.043,12.2,12.2,0,0,1,1.4-3.909A10.439,10.439,0,0,1,3.986,6.1,9.841,9.841,0,0,1,7.01,4.377a10.174,10.174,0,0,1,3.443-.593,7.928,7.928,0,0,1,3.129.574A5.832,5.832,0,0,1,15.8,5.951,5.515,5.515,0,0,1,16.968,8.38a7.647,7.647,0,0,1-.005,3.077,2.184,2.184,0,0,1-.7,1.351,2.973,2.973,0,0,1-1.4.574ZM9.887,6.786A5.465,5.465,0,0,0,6.244,8.158a6.9,6.9,0,0,0-2.165,3.93l9.347-1.3a3.982,3.982,0,0,0-.686-2.836A3.306,3.306,0,0,0,9.887,6.786" transform="translate(0 2.703)" fill="#ffffff"></path>
          <path id="Trazado_151" data-name="Trazado 151" d="M35.895,3.784a7.8,7.8,0,0,1,5.195,1.5q1.751,1.5,1.145,4.727l-1.627,8.636a2.407,2.407,0,0,1-.636,1.317,5.615,5.615,0,0,1-1.219.871,12.556,12.556,0,0,1-2.661.964,14.573,14.573,0,0,1-3.592.408A8.432,8.432,0,0,1,27.158,20.8a3.973,3.973,0,0,1-1.233-4.151A5.685,5.685,0,0,1,28.2,12.9a9.9,9.9,0,0,1,4.833-1.593l5.241-.519.154-.814A2.292,2.292,0,0,0,37.824,7.6a4.407,4.407,0,0,0-2.8-.742,10.7,10.7,0,0,0-2.927.41,19.664,19.664,0,0,0-2.618.926,2.084,2.084,0,0,1-.492-.722,1.619,1.619,0,0,1-.081-.946,1.986,1.986,0,0,1,.511-1.039,3.244,3.244,0,0,1,1.111-.7,10.285,10.285,0,0,1,2.512-.76,16.338,16.338,0,0,1,2.856-.242M33.073,19.168a9.308,9.308,0,0,0,2.306-.261,5.287,5.287,0,0,0,1.473-.557l.886-4.706-4.11.408a6.667,6.667,0,0,0-2.7.76,2.472,2.472,0,0,0-1.183,1.761,1.881,1.881,0,0,0,.566,1.91,4.265,4.265,0,0,0,2.757.686" transform="translate(18.438 2.703)" fill="#ffffff"></path>
          <path id="Trazado_152" data-name="Trazado 152" d="M38.343,24.575a2.217,2.217,0,0,1-1.514-.408,1.424,1.424,0,0,1-.259-1.37L40.81.3c.182-.048.439-.111.775-.185A4.877,4.877,0,0,1,42.641,0a2.231,2.231,0,0,1,1.516.408,1.427,1.427,0,0,1,.259,1.372l-4.24,22.5a5.593,5.593,0,0,1-.8.2,5.474,5.474,0,0,1-1.036.093" transform="translate(26.09 -0.001)" fill="#ffffff"></path>
          <path id="Trazado_153" data-name="Trazado 153" d="M43.8,4.214c.18-.046.437-.1.772-.166a5.913,5.913,0,0,1,1.053-.091,2.145,2.145,0,0,1,1.5.408,1.507,1.507,0,0,1,.233,1.408l-1.726,9.155q-.4,2.15.554,3.059a4.17,4.17,0,0,0,2.956.909,8.436,8.436,0,0,0,2.232-.261,7.963,7.963,0,0,0,1.51-.555L55.5,4.214c.2-.046.468-.1.79-.166a5.591,5.591,0,0,1,1.034-.091,2.219,2.219,0,0,1,1.516.408,1.472,1.472,0,0,1,.252,1.408L56.734,18.264a3.52,3.52,0,0,1-.511,1.336A3.564,3.564,0,0,1,55,20.6a13.8,13.8,0,0,1-2.724,1,14.622,14.622,0,0,1-3.765.442q-3.811,0-5.62-1.685T41.77,15Z" transform="translate(29.706 2.827)" fill="#ffffff"></path>
          <path id="Trazado_154" data-name="Trazado 154" d="M62.183,3.784a7.8,7.8,0,0,1,5.193,1.5q1.751,1.5,1.145,4.727l-1.627,8.636a2.384,2.384,0,0,1-.636,1.317,5.644,5.644,0,0,1-1.217.871,12.61,12.61,0,0,1-2.663.964,14.573,14.573,0,0,1-3.592.408A8.432,8.432,0,0,1,53.445,20.8a3.973,3.973,0,0,1-1.233-4.151A5.685,5.685,0,0,1,54.489,12.9a9.9,9.9,0,0,1,4.833-1.593l5.243-.519.154-.814A2.3,2.3,0,0,0,64.112,7.6a4.416,4.416,0,0,0-2.8-.742,10.7,10.7,0,0,0-2.927.41,19.636,19.636,0,0,0-2.616.926,2.065,2.065,0,0,1-.494-.722,1.618,1.618,0,0,1-.081-.946A1.986,1.986,0,0,1,55.7,5.488a3.244,3.244,0,0,1,1.111-.7,10.276,10.276,0,0,1,2.513-.76,16.31,16.31,0,0,1,2.856-.242M59.361,19.168a9.3,9.3,0,0,0,2.3-.261,5.287,5.287,0,0,0,1.473-.557l.886-4.706-4.11.408a6.676,6.676,0,0,0-2.7.76,2.472,2.472,0,0,0-1.183,1.761,1.881,1.881,0,0,0,.566,1.91,4.267,4.267,0,0,0,2.759.686" transform="translate(37.219 2.703)" fill="#ffffff"></path>
          <path id="Trazado_155" data-name="Trazado 155" d="M66.273,21.575a4.289,4.289,0,0,1-.76.2,5.469,5.469,0,0,1-1.034.093,2.216,2.216,0,0,1-1.516-.408,1.416,1.416,0,0,1-.259-1.37L65,7.936a3.232,3.232,0,0,1,.653-1.5,4.986,4.986,0,0,1,1.389-1.092A12.228,12.228,0,0,1,69.987,4.23a15.149,15.149,0,0,1,3.746-.446q3.256,0,2.908,1.853a2.689,2.689,0,0,1-.305.833,5,5,0,0,1-.463.687c-.237-.05-.537-.1-.9-.151a9.173,9.173,0,0,0-1.169-.074,11.41,11.41,0,0,0-2.762.317,10.5,10.5,0,0,0-2.222.794Z" transform="translate(44.762 2.703)" fill="#ffffff"></path>
        </g>
      </g>
      <g id="Grupo_12" data-name="Grupo 12" transform="translate(19.826 6.115)">
        <g id="Grupo_11" data-name="Grupo 11" clip-path="url(#clip-path-2)">
          <rect id="Rectángulo_5" data-name="Rectángulo 5" width="19.551" height="22.753" transform="translate(-7.168 3.136) rotate(-23.85)" stroke="rgba(0,0,0,0)" stroke-width="1" fill="url(#linear-gradient)"></rect>
        </g>
      </g>
      <g id="Grupo_14" data-name="Grupo 14" transform="translate(27.047 1.99)">
        <g id="Grupo_13" data-name="Grupo 13" clip-path="url(#clip-path-3)">
          <rect id="Rectángulo_6" data-name="Rectángulo 6" width="30.8" height="30.8" transform="translate(-10.13 10.13) rotate(-45)" stroke="rgba(0,0,0,0)" stroke-width="1" fill="url(#linear-gradient-2)"></rect>
        </g>
      </g>
      <g id="Grupo_16" data-name="Grupo 16" transform="translate(27.047 1.521)">
        <g id="Grupo_15" data-name="Grupo 15" clip-path="url(#clip-path-4)">
          <rect id="Rectángulo_7" data-name="Rectángulo 7" width="9.239" height="9.231" transform="translate(-2.811 1.453) rotate(-27.44)" stroke="rgba(0,0,0,0)" stroke-width="1" fill="url(#linear-gradient-3)"></rect>
        </g>
      </g>
    </g>
  </g>
</svg>
